<?xml version="1.0" standalone="no"?>
<!DOCTYPE svg PUBLIC "-//W3C//DTD SVG 20010904//EN"
 "http://www.w3.org/TR/2001/REC-SVG-20010904/DTD/svg10.dtd">
<svg version="1.0" xmlns="http://www.w3.org/2000/svg"
 width="260.000000pt" height="260.000000pt" viewBox="0 0 260.000000 260.000000"
 preserveAspectRatio="xMidYMid meet">
<metadata>
Created by potrace 1.14, written by Peter Selinger 2001-2017
</metadata>
<g transform="translate(0.000000,260.000000) scale(0.100000,-0.100000)"
fill="#000000" stroke="none">
<path d="M397 2114 c-34 -11 -51 -22 -57 -40 -6 -14 -14 -23 -18 -20 -9 5
-123 -178 -143 -229 -30 -79 -79 -279 -118 -485 -58 -303 -61 -584 -8 -711 37
-90 120 -141 227 -143 99 -2 176 47 235 148 26 44 155 376 155 399 0 8 8 21
18 31 18 15 20 15 43 -2 94 -74 212 -72 313 3 30 22 38 22 256 23 174 0 228
-3 240 -13 8 -7 39 -25 68 -40 87 -43 184 -34 259 25 24 19 27 19 45 4 10 -10
18 -23 18 -30 0 -18 107 -299 141 -371 47 -98 132 -170 214 -180 70 -8 160 22
208 70 71 71 95 164 92 362 -2 117 -13 262 -20 275 -2 3 -6 30 -10 60 -4 30
-9 58 -11 61 -2 3 -6 24 -8 45 -3 22 -13 71 -22 109 -9 39 -18 84 -21 100 -2
17 -9 48 -15 70 -5 22 -11 47 -13 55 -14 70 -82 231 -105 250 -4 3 -22 31 -40
62 -19 31 -38 55 -42 52 -4 -3 -12 6 -18 20 -13 34 -73 51 -180 50 -93 0 -164
-18 -156 -39 7 -19 -27 -27 -139 -34 l-100 -6 -2 -170 c-1 -93 -2 -192 -3
-218 0 -38 -5 -53 -25 -71 l-25 -24 -331 0 -330 0 -25 24 c-27 27 -25 6 -25
295 l0 167 -91 1 c-50 1 -99 6 -109 12 -11 5 -19 6 -19 2 0 -4 -10 4 -23 20
-26 32 -45 38 -152 43 -54 2 -96 -1 -128 -12z m160 -306 c2 -51 0 -60 -25 -83
-35 -33 -55 -32 -85 5 -23 27 -29 70 -18 133 0 4 29 7 63 5 l63 -3 2 -57z
m-132 -114 c31 -33 31 -35 -1 -74 -25 -29 -30 -31 -88 -28 l-61 3 0 54 c0 30
5 60 12 66 6 7 33 11 62 9 40 -2 56 -8 76 -30z m274 18 c3 -5 5 -34 5 -64 l-1
-53 -60 -3 c-57 -3 -62 -1 -87 28 -14 17 -26 35 -26 38 1 11 24 37 47 53 25
17 111 18 122 1z m-171 -122 c26 -25 34 -54 30 -106 l-3 -39 -62 -2 c-70 -1
-72 1 -69 74 1 29 10 51 26 68 28 30 49 32 78 5z m425 -184 c93 -40 125 -160
62 -241 -54 -72 -144 -88 -217 -40 -110 73 -91 242 32 288 28 10 91 7 123 -7z
m857 -16 c66 -47 86 -156 39 -220 -72 -96 -202 -96 -267 0 -32 47 -37 77 -23
129 22 83 80 124 167 118 33 -2 62 -12 84 -27z"/>
<path d="M961 1835 c0 -157 3 -216 12 -222 17 -11 628 -12 650 -1 16 8 17 28
17 223 l-1 215 -339 0 -339 0 0 -215z"/>
</g>
</svg>
